<?xml version="1.0" standalone="no"?>
<!DOCTYPE svg PUBLIC "-//W3C//DTD SVG 20010904//EN"
 "http://www.w3.org/TR/2001/REC-SVG-20010904/DTD/svg10.dtd">
<svg version="1.0" xmlns="http://www.w3.org/2000/svg"
 width="432.000000pt" height="432.000000pt" viewBox="0 0 432.000000 432.000000"
 preserveAspectRatio="xMidYMid meet">

<g transform="translate(0.000000,432.000000) scale(0.100000,-0.100000)"
fill="#000000" stroke="none">
<path d="M0 2160 l0 -2160 2160 0 2160 0 0 2160 0 2160 -2160 0 -2160 0 0
-2160z m705 1710 c-3 -5 -13 -10 -21 -10 -8 0 -14 5 -14 10 0 6 9 10 21 10 11
0 17 -4 14 -10z m315 0 c0 -5 -6 -10 -14 -10 -8 0 -18 5 -21 10 -3 6 3 10 14
10 12 0 21 -4 21 -10z m508 -16 c2 -11 -4 -27 -13 -34 -10 -8 -15 -9 -15 -1 0
6 5 11 10 11 6 0 10 5 10 10 0 6 -9 10 -20 10 -12 0 -20 7 -20 16 0 24 44 14
48 -12z m172 -44 c0 -21 -15 -27 -25 -10 -7 12 2 30 16 30 5 0 9 -9 9 -20z
m-578 -34 c13 -30 3 -69 -12 -46 -8 12 -10 10 -10 -8 0 -13 -4 -21 -9 -18 -5
4 -11 1 -13 -5 -6 -19 -38 20 -38 46 0 24 33 55 57 55 8 0 18 -11 25 -24z
m318 -32 c0 -9 -7 -14 -17 -12 -25 5 -28 28 -4 28 12 0 21 -6 21 -16z m134
-66 c8 -18 15 -27 15 -20 1 6 6 12 12 12 7 0 9 -10 7 -25 -7 -34 -1 -31 16 8
l15 32 -6 -35 c-6 -31 -5 -33 9 -22 9 7 14 21 11 30 -3 14 3 17 36 17 27 0 41
-4 41 -12 0 -7 8 -13 19 -13 10 0 24 -7 31 -15 7 -8 19 -15 28 -15 14 0 41
-27 42 -43 0 -4 -10 -12 -22 -17 -22 -8 -22 -9 4 -9 15 -1 30 4 33 10 9 14 37
-26 42 -60 1 -14 4 -43 5 -64 2 -25 6 -36 15 -33 22 9 25 -13 3 -26 -25 -16
-25 -27 -2 -44 16 -13 16 -15 0 -24 -9 -5 -39 -28 -67 -50 -28 -22 -52 -40
-54 -40 -3 0 -2 30 0 68 4 61 2 71 -24 110 -42 64 -115 97 -213 96 -199 -3
-410 -112 -610 -313 -98 -99 -132 -146 -166 -228 -29 -71 -30 -134 -4 -187 34
-70 104 -104 219 -109 56 -2 62 0 95 32 45 44 47 77 6 116 -56 53 -34 131 77
268 61 76 133 137 205 173 48 24 133 46 142 36 14 -13 -101 -192 -253 -392
-160 -212 -235 -355 -247 -478 -7 -65 12 -116 48 -128 28 -8 22 -20 -38 -82
-78 -78 -131 -150 -149 -201 -20 -58 -19 -137 4 -186 20 -43 90 -114 140 -139
17 -9 31 -18 31 -19 0 -1 -60 -2 -132 -2 -124 0 -137 -2 -191 -27 -70 -33
-164 -125 -197 -193 -104 -215 76 -395 393 -395 182 0 289 43 416 166 l84 82
143 -55 144 -56 0 -42 c0 -108 118 -145 258 -80 52 24 54 24 120 9 93 -21 365
-30 444 -14 88 17 157 52 206 104 49 52 62 82 62 139 0 53 -45 144 -83 167
l-28 17 34 26 34 26 24 -37 c39 -59 80 -77 179 -77 75 0 92 4 150 32 36 18 97
61 137 97 46 43 73 62 77 54 3 -7 4 -4 1 8 -3 13 2 27 16 40 32 28 109 149
109 171 0 29 -20 43 -61 43 -34 0 -44 -8 -120 -91 -94 -103 -144 -139 -194
-141 -43 -2 -48 3 -40 35 5 19 15 27 43 32 101 18 230 113 272 199 29 62 27
136 -5 175 -39 46 -82 56 -157 36 -34 -9 -82 -27 -107 -42 -62 -36 -194 -165
-237 -232 -59 -91 -172 -196 -190 -178 -12 11 127 183 313 388 105 116 118
199 43 269 l-29 27 40 6 c79 10 161 61 246 150 88 94 146 185 171 269 14 46
20 57 34 52 11 -3 22 3 30 15 7 12 18 21 25 21 16 0 17 -12 1 -29 -11 -10 -10
-15 5 -25 20 -15 22 -37 5 -54 -9 -9 -9 -15 0 -24 7 -7 12 -21 12 -31 0 -17
-2 -18 -17 -6 -14 12 -16 12 -8 0 5 -9 2 -18 -9 -26 -14 -11 -15 -19 -5 -64 6
-29 8 -55 5 -58 -3 -4 -6 -1 -6 5 0 7 -4 12 -9 12 -5 0 -7 -9 -4 -20 3 -11 1
-20 -4 -20 -6 0 -8 -11 -6 -24 3 -13 0 -27 -6 -30 -6 -4 -11 -16 -11 -26 0
-11 -16 -34 -35 -51 -19 -18 -32 -35 -30 -39 9 -14 -7 -40 -23 -40 -8 0 -24 7
-34 16 -16 15 -18 15 -24 1 -3 -9 -12 -13 -19 -11 -7 3 -24 -6 -39 -19 -26
-25 -34 -47 -16 -47 6 0 10 -6 10 -14 0 -22 19 -29 36 -15 12 9 20 9 39 -1 26
-14 24 -32 -2 -28 -9 2 -18 -2 -20 -8 -2 -7 14 -10 47 -8 45 2 52 -1 60 -19 7
-20 9 -20 15 -4 4 9 2 24 -5 32 -7 8 -9 15 -6 15 12 0 36 -27 36 -40 0 -6 4
-9 9 -6 15 9 41 -5 41 -21 0 -11 -7 -14 -25 -11 -31 6 -32 -3 -3 -21 19 -12
23 -11 33 3 15 19 26 21 19 3 -3 -8 -1 -24 4 -38 13 -34 4 -55 -13 -32 -7 10
-16 15 -20 11 -9 -9 25 -59 36 -52 5 3 9 -3 10 -13 0 -10 3 -13 6 -5 9 23 23
12 23 -19 0 -17 4 -28 10 -24 6 3 7 -1 4 -9 -3 -9 -16 -16 -27 -16 -20 0 -20
-1 -2 -14 13 -9 16 -19 10 -32 -4 -10 -9 -29 -11 -41 -1 -12 -12 -32 -23 -45
-12 -12 -21 -26 -21 -32 0 -5 -21 -30 -47 -54 -28 -25 -49 -54 -50 -67 -2 -22
0 -23 28 -13 16 5 32 14 35 19 3 5 22 9 42 9 20 0 49 6 64 14 19 10 29 11 37
3 7 -7 11 -7 11 -1 0 9 61 37 75 34 3 0 13 6 21 15 9 8 23 15 33 15 10 0 57
21 105 46 63 33 94 44 112 40 18 -5 24 -2 25 11 0 11 3 13 6 6 2 -7 9 -13 14
-13 4 0 6 6 4 13 -4 8 5 12 25 13 22 1 30 -3 30 -16 0 -9 3 -20 7 -23 10 -10
33 13 33 34 0 20 39 35 65 25 18 -7 20 -47 3 -64 -7 -7 -21 -12 -32 -12 -21
-1 -21 -1 -2 -12 15 -8 21 -8 24 0 2 7 11 12 20 12 12 0 9 -7 -13 -26 -29 -25
-29 -26 -11 -40 22 -16 18 -24 -14 -27 -19 -1 -21 -6 -17 -34 4 -22 2 -30 -6
-27 -7 2 -17 -7 -24 -21 -6 -14 -7 -25 -3 -25 5 0 11 6 14 13 5 9 7 9 12 -1 5
-10 9 -9 20 5 13 17 13 17 14 -4 0 -13 5 -23 10 -23 6 0 8 11 4 25 -3 14 -2
26 2 26 74 10 73 10 72 -21 -1 -33 -12 -39 -26 -13 -8 13 -11 11 -17 -15 -5
-23 -12 -32 -26 -32 -11 0 -22 -7 -25 -15 -4 -8 -19 -15 -34 -15 -16 0 -32 -5
-35 -11 -4 -6 -13 -8 -21 -5 -9 4 -14 -2 -14 -15 0 -12 -5 -19 -12 -16 -7 2
-20 -1 -28 -9 -8 -7 -22 -14 -30 -16 -8 -2 -22 -12 -31 -22 -20 -24 -59 -29
-60 -7 0 14 -1 14 -6 1 -14 -38 -73 -68 -73 -37 0 6 -5 4 -11 -5 -5 -10 -19
-18 -29 -18 -11 0 -38 -10 -61 -22 -34 -17 -42 -19 -50 -7 -6 10 -9 10 -9 2 0
-7 -9 -13 -20 -13 -10 0 -24 -8 -30 -17 -11 -17 -11 -17 -6 -1 5 16 1 16 -44
-2 -43 -17 -50 -18 -50 -4 0 10 -4 12 -12 7 -15 -9 -20 -10 -57 -12 -16 0 -36
-8 -44 -16 -13 -13 -16 -13 -21 0 -3 8 -11 15 -17 15 -8 0 -8 -4 1 -15 14 -17
7 -18 -60 -15 -29 1 -39 -4 -50 -24 -7 -14 -18 -27 -24 -27 -49 -6 -61 -4 -77
12 -11 11 -32 19 -47 19 -15 0 -33 5 -39 11 -7 7 -15 5 -27 -7 -10 -9 -34 -18
-53 -20 -37 -3 -65 -26 -39 -32 18 -4 47 -47 39 -56 -4 -3 -17 -6 -30 -6 -23
0 -33 -19 -10 -21 9 0 9 -2 -1 -6 -7 -3 -19 -17 -26 -32 -12 -23 -12 -29 4
-49 11 -13 21 -18 25 -12 3 5 1 10 -5 10 -6 0 -8 5 -5 10 8 14 64 6 79 -11 8
-9 7 -10 -8 -5 -14 5 -17 2 -12 -9 3 -8 9 -22 12 -30 4 -9 1 -15 -9 -15 -8 0
-17 7 -21 15 -9 25 -45 18 -56 -11 -10 -25 -14 -26 -56 -21 -40 4 -47 2 -51
-14 -6 -20 -18 -25 -28 -10 -3 5 -21 7 -41 4 -25 -4 -39 -2 -44 7 -7 11 -13 9
-29 -11 -11 -13 -20 -19 -21 -12 0 7 -7 10 -15 7 -11 -5 -13 -2 -9 10 5 13 2
15 -12 9 -11 -3 -22 -11 -25 -16 -4 -5 -15 -5 -27 2 -14 7 -23 8 -27 1 -10
-16 -38 -12 -32 5 8 20 -9 28 -32 15 -13 -6 -22 -6 -26 0 -3 5 -12 7 -20 3 -9
-3 -15 1 -15 8 0 9 -3 10 -11 2 -7 -7 -21 -8 -41 -2 -25 7 -29 5 -24 -7 5 -12
1 -14 -17 -8 -12 3 -28 11 -34 16 -9 7 -13 6 -13 -3 -1 -10 -4 -8 -11 4 -5 9
-17 17 -26 17 -14 0 -14 -2 3 -15 20 -15 8 -21 -15 -6 -14 9 -87 -21 -104 -43
-6 -8 -10 -7 -14 2 -6 16 -33 -3 -33 -24 0 -8 -9 -14 -19 -14 -10 0 -22 -7
-25 -16 -4 -10 -12 -14 -23 -10 -10 4 -14 4 -10 0 4 -4 -5 -13 -19 -21 -30
-15 -37 -16 -30 -4 3 4 -6 6 -19 3 -14 -2 -25 -9 -25 -14 0 -6 -8 -7 -17 -3
-10 4 -35 8 -55 9 -20 2 -48 10 -61 19 -20 13 -28 13 -48 3 -22 -11 -27 -9
-62 28 -20 23 -40 51 -43 64 -6 20 -15 26 -36 23 -9 -1 -21 39 -14 46 3 4 -2
15 -11 25 -14 16 -19 39 -22 114 -1 13 -36 38 -68 48 -18 6 -25 1 -37 -21 -22
-43 -133 -156 -145 -149 -6 4 -11 0 -11 -8 0 -20 -20 -32 -30 -16 -5 8 -9 4
-13 -11 -5 -19 -8 -20 -22 -9 -14 11 -18 11 -25 0 -4 -7 -15 -10 -25 -6 -12 4
-18 0 -22 -13 -7 -26 -103 -58 -129 -43 -13 7 -22 6 -32 -4 -8 -8 -28 -14 -45
-13 -18 1 -40 -2 -49 -6 -12 -4 -18 -3 -18 5 0 7 -6 10 -14 7 -8 -3 -17 -1
-19 6 -3 9 -13 7 -36 -5 -27 -15 -34 -15 -58 -3 -34 18 -50 19 -55 3 -2 -6
-10 -8 -17 -4 -9 6 -9 11 -1 21 14 16 -13 28 -28 13 -12 -12 -60 13 -75 39 -4
7 -14 13 -22 13 -7 0 -17 9 -20 20 -3 11 -11 20 -16 20 -5 0 -9 9 -9 20 0 11
-9 25 -20 32 -11 7 -20 22 -20 34 0 12 -7 27 -15 34 -9 7 -14 18 -12 24 2 6
-7 28 -20 49 -13 21 -25 57 -27 85 -2 26 -7 56 -12 67 -14 34 -8 77 18 143 26
62 26 63 4 55 -59 -20 -96 2 -96 58 0 38 26 69 58 69 27 0 71 -41 77 -71 l7
-31 28 31 c16 17 34 31 41 31 7 0 28 12 48 28 56 42 102 64 124 58 12 -3 26 2
34 12 11 12 16 14 19 5 8 -18 33 -16 40 2 4 10 15 12 35 8 33 -6 41 15 14 37
-8 7 -15 19 -15 27 0 7 -7 24 -15 36 -8 13 -19 52 -24 88 -7 51 -6 66 5 75 8
6 14 17 14 24 0 8 21 41 47 74 47 60 54 67 83 86 13 8 13 11 1 19 -7 5 -11 13
-7 19 3 5 -1 23 -9 38 -19 37 -19 105 0 130 8 10 15 32 15 48 0 16 9 44 21 62
13 22 16 34 9 34 -7 0 -10 8 -7 20 3 13 0 20 -9 20 -8 0 -14 -4 -14 -9 0 -6
-9 -9 -20 -8 -12 1 -18 7 -16 14 3 7 1 13 -3 13 -5 0 -12 -7 -15 -16 -8 -20
-25 -9 -21 14 1 9 0 11 -2 5 -5 -16 -9 -16 -33 -3 -12 6 -21 7 -25 0 -9 -14
-37 1 -31 17 3 8 1 11 -4 8 -6 -3 -14 5 -19 18 -6 14 -15 28 -21 32 -6 4 -8
15 -5 24 3 11 -3 25 -15 36 -18 16 -20 27 -15 90 5 79 19 122 89 263 60 123
119 204 219 301 100 98 164 144 184 136 9 -3 24 3 36 16 13 14 23 17 29 11 7
-7 26 -2 57 15 96 53 116 63 128 63 7 0 13 5 13 11 0 7 11 8 29 4 23 -5 32 -2
44 15 8 12 13 30 10 41 -9 33 26 22 41 -13z m-386 0 c-6 -18 -28 -21 -28 -4 0
9 7 16 16 16 9 0 14 -5 12 -12z m2222 -24 c0 -12 6 -15 23 -10 54 16 68 14 62
-8 -5 -15 -4 -17 3 -7 5 7 15 10 21 7 16 -10 13 -24 -6 -29 -14 -4 -13 -5 3
-6 12 0 24 6 28 14 7 20 26 19 26 0 0 -8 5 -24 12 -34 13 -21 4 -56 -13 -45
-8 5 -8 9 1 14 9 6 7 11 -9 19 -30 16 -28 -3 4 -35 14 -14 25 -29 25 -34 0 -6
4 -10 10 -10 17 0 0 -84 -25 -120 -13 -19 -33 -56 -45 -82 -11 -26 -24 -50
-29 -52 -5 -3 -12 -18 -16 -33 -3 -15 -10 -30 -14 -33 -12 -8 -76 -142 -76
-159 0 -10 -11 -17 -27 -19 -36 -4 -35 6 3 54 95 117 84 198 -30 239 -70 24
-100 20 -143 -22 -21 -20 -38 -46 -38 -58 0 -54 -75 -173 -188 -296 l-52 -56
-40 38 c-22 21 -40 44 -40 52 0 7 -7 22 -15 33 -8 10 -15 28 -15 39 -1 11 -4
15 -6 8 -4 -9 -13 -9 -30 -2 -80 30 -184 -1 -286 -85 -56 -46 -58 -46 -83 -30
-14 9 -25 25 -25 35 0 10 -13 33 -28 50 -24 27 -37 33 -85 37 -31 2 -57 6 -57
8 0 2 6 16 12 31 15 33 38 54 55 48 6 -2 13 0 15 4 2 5 23 11 47 15 24 3 46 8
49 11 3 3 12 -1 20 -8 12 -9 16 -9 19 1 3 6 18 12 34 12 22 0 29 -5 29 -20 0
-24 -1 -24 50 -4 32 13 43 14 55 4 8 -7 22 -9 31 -6 10 4 25 -3 39 -16 15 -15
37 -23 69 -24 55 -4 69 -11 62 -31 -3 -8 -1 -11 5 -8 14 10 55 -2 74 -21 8 -9
22 -14 29 -11 11 4 100 145 115 182 2 6 34 60 71 120 37 61 87 146 110 190 66
122 80 140 115 140 24 0 29 -4 27 -19 -2 -11 1 -15 7 -11 6 3 11 12 11 20 0
13 26 34 43 35 4 0 7 -7 7 -16z m-2610 -20 c7 -19 7 -31 -1 -40 -13 -16 -49
-19 -49 -4 0 6 -4 10 -10 10 -5 0 -7 -7 -4 -15 7 -18 -7 -20 -24 -3 -8 8 -8
16 0 32 27 50 73 60 88 20z m-149 -97 c-1 -12 -15 -9 -19 4 -3 6 1 10 8 8 6
-3 11 -8 11 -12z m-373 -20 c2 -12 -3 -17 -17 -17 -15 0 -21 6 -21 21 0 25 33
22 38 -4z m-171 -8 c14 -14 6 -39 -12 -39 -18 0 -28 17 -21 35 6 18 18 19 33
4z m2246 -49 c15 -14 3 -45 -19 -48 -19 -3 -44 30 -44 59 0 10 49 2 63 -11z
m-2283 -10 c0 -5 -4 -10 -10 -10 -5 0 -10 5 -10 10 0 6 5 10 10 10 6 0 10 -4
10 -10z m572 -12 c9 -26 -7 -73 -26 -76 -14 -3 -17 0 -13 12 4 10 1 16 -7 16
-19 0 -29 30 -15 46 14 17 55 18 61 2z m-451 -31 c-13 -13 -26 -3 -16 12 3 6
11 8 17 5 6 -4 6 -10 -1 -17z m1919 -21 c0 -3 -4 -8 -10 -11 -5 -3 -10 -1 -10
4 0 6 5 11 10 11 6 0 10 -2 10 -4z m-1560 -21 c15 -18 6 -45 -13 -45 -20 0
-40 27 -33 45 7 19 30 19 46 0z m-500 -31 c0 -14 -12 -19 -23 -8 -9 9 4 35 14
28 5 -3 9 -12 9 -20z m2270 -4 c0 -5 -4 -10 -9 -10 -6 0 -13 5 -16 10 -3 6 1
10 9 10 9 0 16 -4 16 -10z m185 -29 c0 -19 -29 -36 -49 -28 -14 5 -15 11 -6
27 13 24 55 24 55 1z m-1875 -21 c0 -5 -4 -10 -10 -10 -5 0 -10 5 -10 10 0 6
5 10 10 10 6 0 10 -4 10 -10z m50 -5 c0 -8 -7 -15 -15 -15 -8 0 -15 7 -15 15
0 8 7 15 15 15 8 0 15 -7 15 -15z m-279 -15 c20 -11 26 -45 9 -55 -30 -18 -71
25 -49 51 14 17 15 17 40 4z m2256 -46 c3 -8 -2 -23 -11 -32 -14 -15 -18 -15
-31 -1 -9 9 -13 23 -9 32 8 21 43 22 51 1z m-287 -19 c0 -8 -7 -15 -15 -15 -8
0 -15 7 -15 15 0 8 7 15 15 15 8 0 15 -7 15 -15z m165 -15 c10 -16 -16 -43
-28 -31 -11 11 -2 41 12 41 5 0 13 -5 16 -10z m-545 -98 c0 -16 -91 -115 -219
-238 -140 -135 -245 -257 -289 -336 -18 -31 -37 -51 -56 -58 -16 -5 -31 -8
-34 -6 -7 8 203 264 357 435 72 79 217 211 234 211 4 0 7 -3 7 -8z m-1798 -25
c9 -13 13 -35 10 -55 -4 -31 -7 -33 -40 -30 -27 2 -40 10 -51 30 -33 58 45
111 81 55z m118 -31 c0 -21 -20 -30 -33 -17 -9 9 -8 14 3 21 21 14 30 12 30
-4z m3815 -46 c-5 -8 -11 -8 -17 -2 -6 6 -7 16 -3 22 5 8 11 8 17 2 6 -6 7
-16 3 -22z m-105 5 c44 -23 55 -50 33 -83 -10 -15 -18 -33 -18 -39 0 -7 -5
-12 -10 -11 -6 1 -9 8 -7 15 2 7 -3 13 -11 13 -23 0 -67 40 -67 61 0 17 32 59
45 59 4 0 19 -7 35 -15z m-3750 -10 c0 -9 -6 -12 -15 -9 -8 4 -15 10 -15 15 0
5 7 9 15 9 8 0 15 -7 15 -15z m3191 -18 c18 -13 55 -124 46 -134 -15 -14 -33
19 -32 57 1 22 -2 40 -6 40 -4 0 -14 11 -23 25 -18 27 -11 32 15 12z m-3126
-78 c13 -41 -38 -65 -69 -33 -20 20 -20 48 0 68 14 14 17 14 39 0 13 -9 27
-25 30 -35z m3201 -17 c-9 -8 -26 10 -26 26 1 15 2 15 15 -2 8 -11 13 -21 11
-24z m-2931 -32 c3 -5 1 -10 -4 -10 -6 0 -11 5 -11 10 0 6 2 10 4 10 3 0 8 -4
11 -10z m3329 -15 c3 -9 -1 -18 -10 -22 -19 -7 -39 11 -30 26 10 16 33 13 40
-4z m-714 -37 c0 -7 -9 -27 -19 -44 -18 -30 -21 -31 -55 -20 -20 6 -36 14 -36
17 0 6 91 58 103 59 4 0 7 -6 7 -12z m-2958 -70 c-15 -15 -26 -4 -18 18 5 13
9 15 18 6 9 -9 9 -15 0 -24z m388 12 c0 -11 -7 -20 -15 -20 -15 0 -21 21 -8
33 12 13 23 7 23 -13z m1524 -36 c11 -29 -16 -105 -49 -138 -26 -25 -55 -20
-55 9 0 30 38 127 53 137 20 13 45 9 51 -8z m460 1 c7 -19 -3 -73 -15 -81 -5
-3 -9 7 -9 22 0 22 -2 24 -15 14 -19 -16 -45 -68 -45 -92 0 -10 -4 -18 -10
-18 -5 0 -10 12 -10 26 0 29 38 125 54 136 18 13 44 9 50 -7z m-2048 -20 c8
-31 -19 -75 -45 -75 -27 0 -54 35 -46 60 13 42 81 53 91 15z m1226 -85 c-2
-32 -1 -75 2 -95 9 -48 68 -112 117 -127 21 -6 39 -13 39 -16 0 -2 -12 -31
-26 -63 -27 -59 -27 -59 -71 -59 -42 0 -43 1 -36 28 4 15 7 48 6 75 -2 71 -40
116 -126 147 -27 9 -27 10 -10 38 25 39 97 131 104 132 3 0 3 -27 1 -60z
m2228 50 c0 -5 -7 -10 -15 -10 -8 0 -15 5 -15 10 0 6 7 10 15 10 8 0 15 -4 15
-10z m105 0 c3 -5 1 -10 -4 -10 -6 0 -11 5 -11 10 0 6 2 10 4 10 3 0 8 -4 11
-10z m-415 -10 c0 -5 -4 -10 -10 -10 -5 0 -10 5 -10 10 0 6 5 10 10 10 6 0 10
-4 10 -10z m18 -132 c22 -22 14 -48 -13 -48 -27 0 -41 20 -31 45 7 18 28 19
44 3z m-2843 -8 c3 -5 -1 -10 -10 -10 -9 0 -13 5 -10 10 3 6 8 10 10 10 2 0 7
-4 10 -10z m-122 -25 c8 -18 -11 -31 -25 -17 -11 11 -3 32 12 32 4 0 10 -7 13
-15z m1559 -68 c18 -13 44 -28 57 -32 30 -9 20 -18 -58 -49 -76 -31 -75 -30
-67 -10 7 18 -14 62 -43 88 l-21 20 32 33 31 33 18 -29 c9 -16 32 -40 51 -54z
m1676 57 c16 -11 22 -25 22 -53 0 -48 -27 -75 -69 -69 -20 3 -32 0 -36 -9 -2
-8 -9 -12 -13 -9 -12 7 3 123 18 141 16 19 50 19 78 -1z m-358 -9 c0 -8 -4
-15 -9 -15 -13 0 -22 16 -14 24 11 11 23 6 23 -9z m-950 -20 c0 -8 -7 -15 -15
-15 -16 0 -20 12 -8 23 11 12 23 8 23 -8z m-2422 -41 c-2 -11 -12 -19 -23 -19
-27 0 -34 42 -8 47 24 6 36 -5 31 -28z m3547 26 c4 -6 1 -18 -6 -26 -11 -13
-14 -13 -27 0 -8 8 -11 19 -8 25 9 14 33 14 41 1z m280 -78 c0 -18 -20 -15
-23 4 -3 10 1 15 10 12 7 -3 13 -10 13 -16z m-3314 -23 c6 -13 7 -25 2 -30
-12 -12 -45 0 -37 12 3 5 0 9 -7 9 -8 0 -8 4 1 15 17 20 27 19 41 -6z m2054 1
c-14 -16 -20 -17 -27 -8 -13 22 -9 28 19 28 26 0 26 0 8 -20z m-2365 -10 c0
-13 -19 -22 -30 -15 -14 9 0 34 16 28 8 -3 14 -9 14 -13z m270 -33 c0 -20 -25
1 -28 24 -2 23 -2 23 13 5 8 -11 15 -24 15 -29z m147 -3 c8 -21 -13 -42 -28
-27 -13 13 -5 43 11 43 6 0 13 -7 17 -16z m-657 -59 c11 -13 11 -18 0 -28 -10
-9 -11 -9 -6 1 4 7 0 15 -10 19 -10 4 -19 2 -22 -5 -2 -7 -8 -9 -13 -6 -12 7
8 34 26 34 7 0 18 -7 25 -15z m590 -4 c0 -23 -16 -36 -25 -21 -9 14 1 40 15
40 5 0 10 -9 10 -19z m589 -23 l20 -42 -48 -51 c-90 -95 -106 -166 -50 -229
33 -38 129 -81 159 -71 10 3 34 23 54 45 29 33 34 44 30 72 -5 26 1 42 25 76
l32 43 52 -7 c29 -4 54 -8 56 -10 3 -3 -7 -17 -20 -32 -82 -89 -197 -261 -220
-327 -20 -59 -24 -61 -48 -13 -29 61 -111 141 -209 205 -46 29 -85 60 -88 68
-10 25 26 112 69 170 23 31 68 76 101 101 33 24 61 44 62 44 1 0 11 -19 23
-42z m1981 21 c0 -5 -4 -9 -10 -9 -5 0 -10 7 -10 16 0 8 5 12 10 9 6 -3 10
-10 10 -16z m330 -14 c0 -8 -7 -15 -15 -15 -9 0 -12 6 -9 15 4 8 10 15 15 15
5 0 9 -7 9 -15z m-1110 -24 c5 -11 10 -34 10 -51 0 -23 5 -33 20 -37 11 -3 20
-8 20 -12 0 -10 -63 -91 -71 -91 -3 0 -11 11 -17 25 -15 32 -69 65 -107 65
-20 0 -41 -11 -67 -37 -21 -20 -38 -41 -38 -46 0 -15 -109 -178 -158 -237 -25
-30 -47 -57 -49 -59 -2 -2 -5 -2 -8 1 -3 2 29 54 70 113 72 104 75 112 75 166
0 41 -5 63 -20 82 -11 14 -20 27 -20 30 0 7 85 40 200 78 102 34 145 37 160
10z m1525 -1 c3 -5 1 -10 -4 -10 -6 0 -11 5 -11 10 0 6 2 10 4 10 3 0 8 -4 11
-10z m-3505 -54 c0 -18 -15 -36 -31 -36 -12 0 -19 7 -19 20 0 15 7 20 25 20
14 0 25 -2 25 -4z m-303 -32 c-9 -9 -28 6 -21 18 4 6 10 6 17 -1 6 -6 8 -13 4
-17z m223 2 c0 -28 -24 -41 -40 -21 -16 20 -5 45 20 45 14 0 20 -7 20 -24z
m-349 -29 c-8 -8 -11 -5 -11 9 0 27 14 41 18 19 2 -9 -1 -22 -7 -28z m282 10
c5 -12 -30 -64 -37 -56 -5 5 -9 38 -7 57 1 16 37 16 44 -1z m-85 -19 c-6 -18
-28 -21 -28 -4 0 9 7 16 16 16 9 0 14 -5 12 -12z m1666 -55 c-73 -126 -151
-227 -221 -285 -48 -40 -63 -46 -63 -25 0 19 287 357 303 357 5 0 -4 -21 -19
-47z m1946 6 c0 -5 -4 -9 -10 -9 -5 0 -10 7 -10 16 0 8 5 12 10 9 6 -3 10 -10
10 -16z m-3712 -72 c2 -12 -3 -17 -17 -17 -15 0 -21 6 -21 21 0 25 33 22 38
-4z m-286 -62 c0 -5 -5 -11 -11 -13 -6 -2 -11 4 -11 13 0 9 5 15 11 13 6 -2
11 -8 11 -13z m3788 -15 c0 -5 -7 -10 -15 -10 -8 0 -15 5 -15 10 0 6 7 10 15
10 8 0 15 -4 15 -10z m320 -20 c0 -5 -2 -10 -4 -10 -3 0 -8 5 -11 10 -3 6 -1
10 4 10 6 0 11 -4 11 -10z m-3610 -21 c0 -5 -7 -9 -15 -9 -15 0 -20 12 -9 23
8 8 24 -1 24 -14z m3690 -150 c0 -12 -27 -11 -35 1 -11 17 5 32 21 19 8 -6 14
-15 14 -20z m-2316 -191 c7 -5 4 -14 -9 -27 -18 -18 -24 -19 -69 -7 -47 12
-75 35 -44 37 7 0 29 11 48 23 l35 23 14 -21 c8 -11 20 -24 25 -28z m-771 -58
c26 -7 47 -15 47 -19 0 -14 -66 -70 -110 -93 -90 -46 -230 -34 -261 23 -16 30
-3 84 24 98 28 14 233 8 300 -9z m2722 -50 c3 -5 1 -10 -4 -10 -6 0 -11 5 -11
10 0 6 2 10 4 10 3 0 8 -4 11 -10z m-25 -65 c0 -8 -4 -15 -10 -15 -5 0 -7 7
-4 15 4 8 8 15 10 15 2 0 4 -7 4 -15z m394 -56 c-3 -5 -13 -9 -22 -8 -14 0
-14 2 2 8 14 5 16 10 8 15 -7 4 -12 13 -12 19 0 7 7 3 15 -7 8 -10 12 -23 9
-27z m-444 7 c0 -21 21 -31 31 -15 7 11 9 10 9 -3 0 -21 -30 -24 -48 -6 -15
15 -16 38 -2 38 6 0 10 -6 10 -14z m-510 -106 c0 -5 -7 -10 -15 -10 -8 0 -15
5 -15 10 0 6 7 10 15 10 8 0 15 -4 15 -10z m-195 -10 c3 -5 1 -10 -4 -10 -6 0
-11 5 -11 10 0 6 2 10 4 10 3 0 8 -4 11 -10z m260 -50 c7 -12 -12 -50 -26 -50
-13 0 -22 27 -15 45 6 17 32 20 41 5z m65 6 c0 -3 -4 -8 -10 -11 -5 -3 -10 -1
-10 4 0 6 5 11 10 11 6 0 10 -2 10 -4z m40 -36 c0 -5 -7 -10 -15 -10 -8 0 -15
5 -15 10 0 6 7 10 15 10 8 0 15 -4 15 -10z m228 -29 c8 -4 12 -19 10 -32 -2
-18 -9 -24 -28 -24 -28 0 -39 27 -20 50 14 17 20 18 38 6z m372 -7 c0 -8 -5
-12 -10 -9 -6 4 -8 11 -5 16 9 14 15 11 15 -7z m-490 -101 c0 -17 -19 -35 -29
-29 -18 12 -12 36 9 36 11 0 20 -3 20 -7z m640 -21 c0 -13 -12 -22 -22 -16
-10 6 -1 24 13 24 5 0 9 -4 9 -8z m-1442 -58 c13 -26 22 -47 20 -48 -40 -22
-61 -27 -83 -22 -24 6 -45 39 -45 71 0 22 30 45 59 45 22 0 31 -8 49 -46z
m1182 -4 c0 -5 -4 -10 -10 -10 -5 0 -10 5 -10 10 0 6 5 10 10 10 6 0 10 -4 10
-10z m-1110 -30 c0 -5 -4 -10 -9 -10 -6 0 -13 5 -16 10 -3 6 1 10 9 10 9 0 16
-4 16 -10z m-255 -20 c0 -22 -29 -18 -33 3 -3 14 1 18 15 15 10 -2 18 -10 18
-18z m-230 -40 c0 -10 -8 -14 -24 -12 -30 3 -35 7 -26 22 10 16 50 8 50 -10z
m335 10 c0 -5 -4 -10 -10 -10 -5 0 -10 5 -10 10 0 6 5 10 10 10 6 0 10 -4 10
-10z m214 -16 c3 -8 2 -12 -4 -9 -6 3 -10 10 -10 16 0 14 7 11 14 -7z m459
-29 c-7 -21 -13 -19 -13 6 0 11 4 18 10 14 5 -3 7 -12 3 -20z m-1503 -49 c0
-2 -7 -6 -15 -10 -8 -3 -15 -1 -15 4 0 6 7 10 15 10 8 0 15 -2 15 -4z m860
-17 c0 -5 -7 -9 -15 -9 -15 0 -20 12 -9 23 8 8 24 -1 24 -14z m-482 -12 c4
-20 -25 -34 -40 -19 -15 15 -1 44 19 40 10 -2 19 -11 21 -21z m647 -17 c3 -5
1 -10 -4 -10 -6 0 -11 5 -11 10 0 6 2 10 4 10 3 0 8 -4 11 -10z m-349 -37
c-10 -10 -19 5 -10 18 6 11 8 11 12 0 2 -7 1 -15 -2 -18z m1162 16 c-2 -6 -8
-10 -13 -10 -5 0 -11 4 -13 10 -2 6 4 11 13 11 9 0 15 -5 13 -11z m-861 -69
c-1 -11 -5 -20 -9 -20 -4 0 -8 9 -8 20 0 11 4 20 9 20 6 0 9 -9 8 -20z"/>
<path d="M1060 3761 c0 -5 7 -12 16 -15 14 -5 15 -4 4 9 -14 17 -20 19 -20 6z"/>
<path d="M1710 3620 c0 -5 5 -10 10 -10 6 0 10 5 10 10 0 6 -4 10 -10 10 -5 0
-10 -4 -10 -10z"/>
<path d="M1265 2991 c4 -8 2 -17 -6 -22 -9 -6 -10 -9 -2 -9 19 0 27 21 13 33
-10 9 -11 9 -5 -2z"/>
<path d="M3443 2490 c-3 -10 -17 -23 -32 -29 -14 -5 -20 -10 -13 -10 9 -1 10
-6 3 -20 -17 -31 0 -33 29 -3 30 31 48 82 29 82 -6 0 -13 -9 -16 -20z"/>
<path d="M3365 2370 c-3 -5 -1 -10 4 -10 6 0 11 5 11 10 0 6 -2 10 -4 10 -3 0
-8 -4 -11 -10z"/>
<path d="M3560 1929 c0 -5 5 -7 10 -4 6 3 10 8 10 11 0 2 -4 4 -10 4 -5 0 -10
-5 -10 -11z"/>
<path d="M3526 1875 c-3 -9 -6 -22 -5 -28 0 -7 5 -1 10 12 5 13 8 26 5 28 -2
2 -6 -3 -10 -12z"/>
<path d="M3495 1790 c-3 -5 -1 -10 4 -10 6 0 11 5 11 10 0 6 -2 10 -4 10 -3 0
-8 -4 -11 -10z"/>
<path d="M3415 1619 c-4 -6 -13 -8 -21 -5 -7 3 -16 1 -19 -4 -3 -4 1 -10 7
-13 21 -6 48 4 48 19 0 17 -6 18 -15 3z"/>
<path d="M4056 1543 c5 -5 12 -12 16 -18 4 -6 8 -2 8 8 0 9 -7 17 -17 17 -9 0
-12 -3 -7 -7z"/>
<path d="M451 1471 c-8 -5 -9 -11 -3 -15 5 -3 12 1 16 9 6 17 6 18 -13 6z"/>
<path d="M1250 1000 c-9 -6 -10 -10 -3 -10 6 0 15 5 18 10 8 12 4 12 -15 0z"/>
<path d="M2886 983 c-6 -14 -5 -15 5 -6 7 7 10 15 7 18 -3 3 -9 -2 -12 -12z"/>
<path d="M776 885 c4 -8 11 -15 16 -15 6 0 5 6 -2 15 -7 8 -14 15 -16 15 -2 0
-1 -7 2 -15z"/>
<path d="M1720 841 c0 -6 5 -13 10 -16 6 -3 10 1 10 9 0 9 -4 16 -10 16 -5 0
-10 -4 -10 -9z"/>
<path d="M1835 840 c-3 -5 -1 -10 4 -10 6 0 11 5 11 10 0 6 -2 10 -4 10 -3 0
-8 -4 -11 -10z"/>
<path d="M3305 3619 c-11 -17 1 -21 15 -4 8 9 8 15 2 15 -6 0 -14 -5 -17 -11z"/>
<path d="M2460 3120 c0 -5 5 -10 10 -10 6 0 10 5 10 10 0 6 -4 10 -10 10 -5 0
-10 -4 -10 -10z"/>
<path d="M2583 3113 c-15 -5 -18 -33 -4 -33 8 0 25 30 19 35 -2 1 -9 0 -15 -2z"/>
</g>
</svg>
